<?xml version="1.0" encoding="utf-8"?>
<!-- Generator: Adobe Illustrator 24.3.0, SVG Export Plug-In . SVG Version: 6.00 Build 0)  -->
<svg version="1.1" id="レイヤー_1" xmlns="http://www.w3.org/2000/svg" xmlns:xlink="http://www.w3.org/1999/xlink" x="0px"
	 y="0px" viewBox="0 0 263.95 78.86" style="enable-background:new 0 0 263.95 78.86;" xml:space="preserve">
<style type="text/css">
	.st0{fill:#F2CC8F;}
</style>
<g>
	<path class="st0" d="M236.66,78.86H13.34C5.97,78.86,0,72.89,0,65.52V32.2c0-7.37,5.97-13.34,13.34-13.34h223.31
		c7.37,0,13.34,5.97,13.34,13.34v33.31C250,72.89,244.03,78.86,236.66,78.86z"/>
</g>
<path class="st0" d="M20.34,22.06L5.4,26.78c-1.84,0.58-3.59-1.09-3.1-2.96L6.54,7.66C7.03,5.8,9.38,5.21,10.7,6.61l10.69,11.44
	C22.62,19.37,22.05,21.52,20.34,22.06z"/>
<path class="st0" d="M48.13,22.76l-15.64-0.79c-1.92-0.1-2.99-2.28-1.88-3.85l9.61-13.66c1.11-1.58,3.52-1.31,4.26,0.47l6.03,14.45
	C51.2,21.04,49.93,22.85,48.13,22.76z"/>
<path class="st0" d="M258.15,0c4.37,7,8.6,18.45,3.41,26.39c-5.19,7.94-17.35,10.95-17.35,10.95l11.53-14.94L258.15,0z"/>
</svg>
